M48
METRIC,TZ
T1C0.800
T2C1.000
T3C1.001
T4C1.200
%
G90
G05
T1
X42500Y19250
X47500Y19250
X33000Y19000
X36500Y19000
X17920Y18620
X17920Y11000
X20460Y18620
X20460Y11000
X23000Y18620
X23000Y11000
X25540Y18620
X25540Y11000
X20250Y6000
X25250Y6000
X12000Y5000
X17000Y5000
T2
X48000Y11040
X48000Y8500
X48000Y5960
T3
X10750Y20001
X10750Y9999
X5000Y20002
X5000Y10000
T4
X31090Y11000
X41250Y11000
X31340Y4750
X41500Y4750
T0
M30
