G04 #@! TF.GenerationSoftware,KiCad,Pcbnew,(2017-06-12 revision 8590a2299)-makepkg*
G04 #@! TF.CreationDate,2017-08-13T17:46:31+02:00*
G04 #@! TF.ProjectId,-7v chargepump,2D37762063686172676570756D702E6B,A*
G04 #@! TF.FileFunction,Copper,L2,Bot,Signal*
G04 #@! TF.FilePolarity,Positive*
%FSLAX46Y46*%
G04 Gerber Fmt 4.6, Leading zero omitted, Abs format (unit mm)*
G04 Created by KiCad (PCBNEW (2017-06-12 revision 8590a2299)-makepkg) date 08/13/17 17:46:31*
%MOMM*%
%LPD*%
G01*
G04 APERTURE LIST*
%ADD10C,0.100000*%
%ADD11C,1.600000*%
%ADD12R,1.600000X1.600000*%
%ADD13R,1.998980X1.998980*%
%ADD14C,1.978996*%
%ADD15O,2.400000X2.400000*%
%ADD16R,2.400000X2.400000*%
%ADD17O,1.700000X1.700000*%
%ADD18R,1.700000X1.700000*%
%ADD19O,1.600000X2.400000*%
%ADD20R,1.600000X2.400000*%
%ADD21C,0.500000*%
%ADD22C,0.254000*%
G04 APERTURE END LIST*
D10*
D11*
X42500000Y19250000D03*
D12*
X47500000Y19250000D03*
D13*
X5000000Y9999760D03*
X5000000Y20002280D03*
D14*
X5000000Y13002040D03*
D10*
G36*
X6198880Y11602500D02*
X3801120Y11602500D01*
X4199900Y14401580D01*
X5800100Y14401580D01*
X6198880Y11602500D01*
X6198880Y11602500D01*
G37*
D14*
X5000000Y17000000D03*
D10*
G36*
X3801120Y18399540D02*
X6198880Y18399540D01*
X5800100Y15600460D01*
X4199900Y15600460D01*
X3801120Y18399540D01*
X3801120Y18399540D01*
G37*
D11*
X36500000Y19000000D03*
D12*
X33000000Y19000000D03*
D11*
X12000000Y5000000D03*
X17000000Y5000000D03*
X25250000Y6000000D03*
X20250000Y6000000D03*
D15*
X41500000Y4750000D03*
D16*
X31340000Y4750000D03*
X41250000Y11000000D03*
D15*
X31090000Y11000000D03*
D17*
X48000000Y11040000D03*
X48000000Y8500000D03*
D18*
X48000000Y5960000D03*
D14*
X10750000Y16998980D03*
D10*
G36*
X9551120Y18398520D02*
X11948880Y18398520D01*
X11550100Y15599440D01*
X9949900Y15599440D01*
X9551120Y18398520D01*
X9551120Y18398520D01*
G37*
D14*
X10750000Y13001020D03*
D10*
G36*
X11948880Y11601480D02*
X9551120Y11601480D01*
X9949900Y14400560D01*
X11550100Y14400560D01*
X11948880Y11601480D01*
X11948880Y11601480D01*
G37*
D13*
X10750000Y20001260D03*
X10750000Y9998740D03*
D19*
X25540000Y11000000D03*
X17920000Y18620000D03*
X23000000Y11000000D03*
X20460000Y18620000D03*
X20460000Y11000000D03*
X23000000Y18620000D03*
X17920000Y11000000D03*
D20*
X25540000Y18620000D03*
D21*
X31340000Y4750000D02*
X31340000Y10750000D01*
X31340000Y10750000D02*
X31090000Y11000000D01*
X36500000Y19000000D02*
X36500000Y16410000D01*
X36500000Y16410000D02*
X31090000Y11000000D01*
X27650032Y14950032D02*
X31700000Y19000000D01*
X31700000Y19000000D02*
X33000000Y19000000D01*
X21799968Y14950032D02*
X27650032Y14950032D01*
X20750000Y16000000D02*
X21799968Y14950032D01*
X20750000Y17930000D02*
X20750000Y16000000D01*
X20460000Y18220000D02*
X20750000Y17930000D01*
X20460000Y18620000D02*
X20460000Y18220000D01*
X48000000Y5960000D02*
X42710000Y5960000D01*
X42710000Y5960000D02*
X41500000Y4750000D01*
X44250000Y16368630D02*
X44250000Y7500000D01*
X44250000Y7500000D02*
X41500000Y4750000D01*
X42500000Y19250000D02*
X42500000Y18118630D01*
X42500000Y18118630D02*
X44250000Y16368630D01*
X12000000Y5000000D02*
X17920000Y10920000D01*
X17920000Y10920000D02*
X17920000Y11000000D01*
X5000000Y9999760D02*
X6499490Y9999760D01*
X6499490Y9999760D02*
X8250001Y8249249D01*
X8250001Y8249249D02*
X12349491Y8249249D01*
X12349491Y8249249D02*
X17147556Y13047314D01*
X18812686Y13047314D02*
X20460000Y11400000D01*
X20460000Y11400000D02*
X20460000Y11000000D01*
X17147556Y13047314D02*
X18812686Y13047314D01*
X23000000Y18620000D02*
X23000000Y21750000D01*
X23000000Y21750000D02*
X20779996Y21750000D01*
X20779996Y21750000D02*
X19779996Y22750000D01*
X3500000Y22750000D02*
X2000000Y21250000D01*
X19779996Y22750000D02*
X3500000Y22750000D01*
X2000000Y21250000D02*
X2000000Y16002040D01*
X2000000Y16002040D02*
X5000000Y13002040D01*
X5000000Y9999760D02*
X5000000Y13002040D01*
X20250000Y6000000D02*
X20250000Y10790000D01*
X20250000Y10790000D02*
X20460000Y11000000D01*
X25540000Y11000000D02*
X25540000Y10600000D01*
X25540000Y10600000D02*
X28250000Y7890000D01*
X28250000Y7890000D02*
X28250000Y4089998D01*
X28250000Y4089998D02*
X31089998Y1250000D01*
X31089998Y1250000D02*
X49250000Y1250000D01*
X49250000Y1250000D02*
X50750000Y2750000D01*
X50750000Y2750000D02*
X50750000Y9500000D01*
X50750000Y9500000D02*
X49210000Y11040000D01*
X49210000Y11040000D02*
X48000000Y11040000D01*
X21385750Y13950021D02*
X22989979Y13950021D01*
X17920000Y18220000D02*
X19220000Y16920000D01*
X22989979Y13950021D02*
X25540000Y11400000D01*
X19220000Y16115771D02*
X21385750Y13950021D01*
X19220000Y16920000D02*
X19220000Y16115771D01*
X17920000Y18620000D02*
X17920000Y18220000D01*
X25540000Y11400000D02*
X25540000Y11000000D01*
X10750000Y16998980D02*
X10750000Y20001260D01*
X17920000Y18620000D02*
X12131260Y18620000D01*
X12131260Y18620000D02*
X10750000Y20001260D01*
X23000000Y11400000D02*
X23000000Y11000000D01*
X16922314Y14671564D02*
X19249978Y14671564D01*
X10750000Y9998740D02*
X12249490Y9998740D01*
X12249490Y9998740D02*
X16922314Y14671564D01*
X20971532Y12950010D02*
X21449990Y12950010D01*
X19249978Y14671564D02*
X20971532Y12950010D01*
X21449990Y12950010D02*
X23000000Y11400000D01*
X8000000Y14250000D02*
X9248980Y13001020D01*
X9248980Y13001020D02*
X10750000Y13001020D01*
X8000000Y14750000D02*
X8000000Y14250000D01*
X7501020Y15248980D02*
X8000000Y14750000D01*
X7501020Y16250000D02*
X7501020Y15248980D01*
X5000000Y17000000D02*
X6751020Y17000000D01*
X6751020Y17000000D02*
X7501020Y16250000D01*
X5000000Y20002280D02*
X5000000Y17000000D01*
X10500000Y13251020D02*
X10750000Y13001020D01*
X10750000Y9998740D02*
X10750000Y13001020D01*
D22*
G36*
X53015000Y932911D02*
X52746500Y984992D01*
X50224563Y972983D01*
X51375787Y2124208D01*
X51375790Y2124210D01*
X51567633Y2411325D01*
X51635000Y2750000D01*
X51635000Y9499995D01*
X51635001Y9500000D01*
X51567633Y9838674D01*
X51567633Y9838675D01*
X51375790Y10125790D01*
X51375787Y10125792D01*
X49835790Y11665790D01*
X49781262Y11702224D01*
X49548675Y11857633D01*
X49492484Y11868810D01*
X49210000Y11925001D01*
X49209995Y11925000D01*
X49189432Y11925000D01*
X49079147Y12090054D01*
X48597378Y12411961D01*
X48029093Y12525000D01*
X47970907Y12525000D01*
X47402622Y12411961D01*
X46920853Y12090054D01*
X46598946Y11608285D01*
X46485907Y11040000D01*
X46598946Y10471715D01*
X46920853Y9989946D01*
X47261553Y9762298D01*
X47118642Y9695183D01*
X46728355Y9266924D01*
X46558524Y8856890D01*
X46679845Y8627000D01*
X47873000Y8627000D01*
X47873000Y8647000D01*
X48127000Y8647000D01*
X48127000Y8627000D01*
X49320155Y8627000D01*
X49441476Y8856890D01*
X49271645Y9266924D01*
X48881358Y9695183D01*
X48738447Y9762298D01*
X49036782Y9961639D01*
X49865000Y9133421D01*
X49865000Y3116579D01*
X48883420Y2135000D01*
X31456577Y2135000D01*
X30689017Y2902560D01*
X32540000Y2902560D01*
X32787765Y2951843D01*
X32997809Y3092191D01*
X33138157Y3302235D01*
X33187440Y3550000D01*
X33187440Y4750000D01*
X39629050Y4750000D01*
X39768731Y4047776D01*
X40166509Y3452459D01*
X40761826Y3054681D01*
X41464050Y2915000D01*
X41535950Y2915000D01*
X42238174Y3054681D01*
X42833491Y3452459D01*
X43231269Y4047776D01*
X43370950Y4750000D01*
X43306303Y5075000D01*
X46509522Y5075000D01*
X46551843Y4862235D01*
X46692191Y4652191D01*
X46902235Y4511843D01*
X47150000Y4462560D01*
X48850000Y4462560D01*
X49097765Y4511843D01*
X49307809Y4652191D01*
X49448157Y4862235D01*
X49497440Y5110000D01*
X49497440Y6810000D01*
X49448157Y7057765D01*
X49307809Y7267809D01*
X49097765Y7408157D01*
X48994292Y7428739D01*
X49271645Y7733076D01*
X49441476Y8143110D01*
X49320155Y8373000D01*
X48127000Y8373000D01*
X48127000Y8353000D01*
X47873000Y8353000D01*
X47873000Y8373000D01*
X46679845Y8373000D01*
X46558524Y8143110D01*
X46728355Y7733076D01*
X47005708Y7428739D01*
X46902235Y7408157D01*
X46692191Y7267809D01*
X46551843Y7057765D01*
X46509522Y6845000D01*
X44846579Y6845000D01*
X44875787Y6874208D01*
X44875790Y6874210D01*
X45067633Y7161325D01*
X45135000Y7500000D01*
X45135000Y16368625D01*
X45135001Y16368630D01*
X45067633Y16707304D01*
X45067633Y16707305D01*
X44875790Y16994420D01*
X44875787Y16994422D01*
X43574856Y18295354D01*
X43715824Y18436077D01*
X43934750Y18963309D01*
X43934750Y18964250D01*
X46065000Y18964250D01*
X46065000Y18323690D01*
X46161673Y18090301D01*
X46340302Y17911673D01*
X46573691Y17815000D01*
X47214250Y17815000D01*
X47373000Y17973750D01*
X47373000Y19123000D01*
X47627000Y19123000D01*
X47627000Y17973750D01*
X47785750Y17815000D01*
X48426309Y17815000D01*
X48659698Y17911673D01*
X48838327Y18090301D01*
X48935000Y18323690D01*
X48935000Y18964250D01*
X48776250Y19123000D01*
X47627000Y19123000D01*
X47373000Y19123000D01*
X46223750Y19123000D01*
X46065000Y18964250D01*
X43934750Y18964250D01*
X43935248Y19534187D01*
X43717243Y20061800D01*
X43602933Y20176310D01*
X46065000Y20176310D01*
X46065000Y19535750D01*
X46223750Y19377000D01*
X47373000Y19377000D01*
X47373000Y20526250D01*
X47627000Y20526250D01*
X47627000Y19377000D01*
X48776250Y19377000D01*
X48935000Y19535750D01*
X48935000Y20176310D01*
X48838327Y20409699D01*
X48659698Y20588327D01*
X48426309Y20685000D01*
X47785750Y20685000D01*
X47627000Y20526250D01*
X47373000Y20526250D01*
X47214250Y20685000D01*
X46573691Y20685000D01*
X46340302Y20588327D01*
X46161673Y20409699D01*
X46065000Y20176310D01*
X43602933Y20176310D01*
X43313923Y20465824D01*
X42786691Y20684750D01*
X42215813Y20685248D01*
X41688200Y20467243D01*
X41284176Y20063923D01*
X41065250Y19536691D01*
X41064752Y18965813D01*
X41282757Y18438200D01*
X41618291Y18102080D01*
X41661472Y17885001D01*
X41682367Y17779955D01*
X41826160Y17564752D01*
X41874210Y17492840D01*
X43365000Y16002051D01*
X43365000Y7866579D01*
X41992589Y6494169D01*
X41535950Y6585000D01*
X41464050Y6585000D01*
X40761826Y6445319D01*
X40166509Y6047541D01*
X39768731Y5452224D01*
X39629050Y4750000D01*
X33187440Y4750000D01*
X33187440Y5950000D01*
X33138157Y6197765D01*
X32997809Y6407809D01*
X32787765Y6548157D01*
X32540000Y6597440D01*
X32225000Y6597440D01*
X32225000Y9569832D01*
X32423491Y9702459D01*
X32821269Y10297776D01*
X32904110Y10714250D01*
X39415000Y10714250D01*
X39415000Y9673690D01*
X39511673Y9440301D01*
X39690302Y9261673D01*
X39923691Y9165000D01*
X40964250Y9165000D01*
X41123000Y9323750D01*
X41123000Y10873000D01*
X41377000Y10873000D01*
X41377000Y9323750D01*
X41535750Y9165000D01*
X42576309Y9165000D01*
X42809698Y9261673D01*
X42988327Y9440301D01*
X43085000Y9673690D01*
X43085000Y10714250D01*
X42926250Y10873000D01*
X41377000Y10873000D01*
X41123000Y10873000D01*
X39573750Y10873000D01*
X39415000Y10714250D01*
X32904110Y10714250D01*
X32960950Y11000000D01*
X32858190Y11516610D01*
X33667889Y12326310D01*
X39415000Y12326310D01*
X39415000Y11285750D01*
X39573750Y11127000D01*
X41123000Y11127000D01*
X41123000Y12676250D01*
X41377000Y12676250D01*
X41377000Y11127000D01*
X42926250Y11127000D01*
X43085000Y11285750D01*
X43085000Y12326310D01*
X42988327Y12559699D01*
X42809698Y12738327D01*
X42576309Y12835000D01*
X41535750Y12835000D01*
X41377000Y12676250D01*
X41123000Y12676250D01*
X40964250Y12835000D01*
X39923691Y12835000D01*
X39690302Y12738327D01*
X39511673Y12559699D01*
X39415000Y12326310D01*
X33667889Y12326310D01*
X37125787Y15784208D01*
X37125790Y15784210D01*
X37317633Y16071325D01*
X37385000Y16410000D01*
X37385000Y17855829D01*
X37715824Y18186077D01*
X37934750Y18713309D01*
X37935248Y19284187D01*
X37717243Y19811800D01*
X37313923Y20215824D01*
X36786691Y20434750D01*
X36215813Y20435248D01*
X35688200Y20217243D01*
X35284176Y19813923D01*
X35065250Y19286691D01*
X35064752Y18715813D01*
X35282757Y18188200D01*
X35615000Y17855377D01*
X35615000Y16776579D01*
X31582589Y12744169D01*
X31125950Y12835000D01*
X31054050Y12835000D01*
X30351826Y12695319D01*
X29756509Y12297541D01*
X29358731Y11702224D01*
X29219050Y11000000D01*
X29358731Y10297776D01*
X29756509Y9702459D01*
X30351826Y9304681D01*
X30455000Y9284158D01*
X30455000Y6597440D01*
X30140000Y6597440D01*
X29892235Y6548157D01*
X29682191Y6407809D01*
X29541843Y6197765D01*
X29492560Y5950000D01*
X29492560Y4099018D01*
X29135000Y4456578D01*
X29135000Y7889995D01*
X29135001Y7890000D01*
X29067633Y8228674D01*
X29067633Y8228675D01*
X28875790Y8515790D01*
X28875787Y8515792D01*
X26950533Y10441047D01*
X26975000Y10564050D01*
X26975000Y11435950D01*
X26865767Y11985101D01*
X26554698Y12450648D01*
X26089151Y12761717D01*
X25540000Y12870950D01*
X25357025Y12834554D01*
X24126548Y14065032D01*
X27650027Y14065032D01*
X27650032Y14065031D01*
X27947543Y14124211D01*
X27988707Y14132399D01*
X28275822Y14324242D01*
X31722796Y17771217D01*
X31742191Y17742191D01*
X31952235Y17601843D01*
X32200000Y17552560D01*
X33800000Y17552560D01*
X34047765Y17601843D01*
X34257809Y17742191D01*
X34398157Y17952235D01*
X34447440Y18200000D01*
X34447440Y19800000D01*
X34398157Y20047765D01*
X34257809Y20257809D01*
X34047765Y20398157D01*
X33800000Y20447440D01*
X32200000Y20447440D01*
X31952235Y20398157D01*
X31742191Y20257809D01*
X31601843Y20047765D01*
X31564090Y19857966D01*
X31417516Y19828810D01*
X31361325Y19817633D01*
X31074210Y19625790D01*
X31074208Y19625787D01*
X27283452Y15835032D01*
X22166547Y15835032D01*
X21635000Y16366580D01*
X21635000Y17409261D01*
X21730000Y17551438D01*
X21985302Y17169352D01*
X22450849Y16858283D01*
X23000000Y16749050D01*
X23549151Y16858283D01*
X24014698Y17169352D01*
X24105000Y17304498D01*
X24105000Y17293691D01*
X24201673Y17060302D01*
X24380301Y16881673D01*
X24613690Y16785000D01*
X25254250Y16785000D01*
X25413000Y16943750D01*
X25413000Y18493000D01*
X25667000Y18493000D01*
X25667000Y16943750D01*
X25825750Y16785000D01*
X26466310Y16785000D01*
X26699699Y16881673D01*
X26878327Y17060302D01*
X26975000Y17293691D01*
X26975000Y18334250D01*
X26816250Y18493000D01*
X25667000Y18493000D01*
X25413000Y18493000D01*
X25393000Y18493000D01*
X25393000Y18747000D01*
X25413000Y18747000D01*
X25413000Y20296250D01*
X25667000Y20296250D01*
X25667000Y18747000D01*
X26816250Y18747000D01*
X26975000Y18905750D01*
X26975000Y19946309D01*
X26878327Y20179698D01*
X26699699Y20358327D01*
X26466310Y20455000D01*
X25825750Y20455000D01*
X25667000Y20296250D01*
X25413000Y20296250D01*
X25254250Y20455000D01*
X24613690Y20455000D01*
X24380301Y20358327D01*
X24201673Y20179698D01*
X24105000Y19946309D01*
X24105000Y19935502D01*
X24014698Y20070648D01*
X23885000Y20157310D01*
X23885000Y21750000D01*
X23817633Y22088675D01*
X23625790Y22375790D01*
X23338675Y22567633D01*
X23000000Y22635000D01*
X21146575Y22635000D01*
X20405786Y23375790D01*
X20118671Y23567633D01*
X20062480Y23578810D01*
X19779996Y23635001D01*
X19779991Y23635000D01*
X3500000Y23635000D01*
X3161325Y23567633D01*
X2874210Y23375790D01*
X2874208Y23375787D01*
X1374210Y21875790D01*
X1182367Y21588675D01*
X1182367Y21588674D01*
X1114999Y21250000D01*
X1115000Y21249995D01*
X1115000Y16002045D01*
X1114999Y16002040D01*
X1148220Y15835032D01*
X1182367Y15663365D01*
X1298218Y15489981D01*
X1374210Y15376250D01*
X3396648Y13353812D01*
X3160152Y11693818D01*
X3202963Y11354735D01*
X3343311Y11144691D01*
X3377461Y11121873D01*
X3353070Y10999250D01*
X3353070Y9000270D01*
X3402353Y8752505D01*
X3542701Y8542461D01*
X3752745Y8402113D01*
X4000510Y8352830D01*
X5999490Y8352830D01*
X6247255Y8402113D01*
X6457299Y8542461D01*
X6556598Y8691072D01*
X7624209Y7623462D01*
X7624211Y7623459D01*
X7911326Y7431616D01*
X8250001Y7364249D01*
X12349486Y7364249D01*
X12349491Y7364248D01*
X12631975Y7420439D01*
X12688166Y7431616D01*
X12975281Y7623459D01*
X12975282Y7623460D01*
X16485000Y11133179D01*
X16485000Y10736579D01*
X12183260Y6434840D01*
X11715813Y6435248D01*
X11188200Y6217243D01*
X10784176Y5813923D01*
X10565250Y5286691D01*
X10564752Y4715813D01*
X10782757Y4188200D01*
X11186077Y3784176D01*
X11713309Y3565250D01*
X12284187Y3564752D01*
X12811800Y3782757D01*
X13021663Y3992255D01*
X16171861Y3992255D01*
X16245995Y3746136D01*
X16783223Y3553035D01*
X17353454Y3580222D01*
X17754005Y3746136D01*
X17828139Y3992255D01*
X17000000Y4820395D01*
X16171861Y3992255D01*
X13021663Y3992255D01*
X13215824Y4186077D01*
X13434750Y4713309D01*
X13435160Y5183580D01*
X13468357Y5216777D01*
X15553035Y5216777D01*
X15580222Y4646546D01*
X15746136Y4245995D01*
X15992255Y4171861D01*
X16820395Y5000000D01*
X17179605Y5000000D01*
X18007745Y4171861D01*
X18253864Y4245995D01*
X18446965Y4783223D01*
X18419778Y5353454D01*
X18253864Y5754005D01*
X18007745Y5828139D01*
X17179605Y5000000D01*
X16820395Y5000000D01*
X15992255Y5828139D01*
X15746136Y5754005D01*
X15553035Y5216777D01*
X13468357Y5216777D01*
X14259325Y6007745D01*
X16171861Y6007745D01*
X17000000Y5179605D01*
X17828139Y6007745D01*
X17754005Y6253864D01*
X17216777Y6446965D01*
X16646546Y6419778D01*
X16245995Y6253864D01*
X16171861Y6007745D01*
X14259325Y6007745D01*
X17470117Y9218537D01*
X17920000Y9129050D01*
X18469151Y9238283D01*
X18934698Y9549352D01*
X19190000Y9931438D01*
X19365000Y9669532D01*
X19365000Y7144171D01*
X19034176Y6813923D01*
X18815250Y6286691D01*
X18814752Y5715813D01*
X19032757Y5188200D01*
X19436077Y4784176D01*
X19963309Y4565250D01*
X20534187Y4564752D01*
X21061800Y4782757D01*
X21271663Y4992255D01*
X24421861Y4992255D01*
X24495995Y4746136D01*
X25033223Y4553035D01*
X25603454Y4580222D01*
X26004005Y4746136D01*
X26078139Y4992255D01*
X25250000Y5820395D01*
X24421861Y4992255D01*
X21271663Y4992255D01*
X21465824Y5186077D01*
X21684750Y5713309D01*
X21685189Y6216777D01*
X23803035Y6216777D01*
X23830222Y5646546D01*
X23996136Y5245995D01*
X24242255Y5171861D01*
X25070395Y6000000D01*
X25429605Y6000000D01*
X26257745Y5171861D01*
X26503864Y5245995D01*
X26696965Y5783223D01*
X26669778Y6353454D01*
X26503864Y6754005D01*
X26257745Y6828139D01*
X25429605Y6000000D01*
X25070395Y6000000D01*
X24242255Y6828139D01*
X23996136Y6754005D01*
X23803035Y6216777D01*
X21685189Y6216777D01*
X21685248Y6284187D01*
X21467243Y6811800D01*
X21271640Y7007745D01*
X24421861Y7007745D01*
X25250000Y6179605D01*
X26078139Y7007745D01*
X26004005Y7253864D01*
X25466777Y7446965D01*
X24896546Y7419778D01*
X24495995Y7253864D01*
X24421861Y7007745D01*
X21271640Y7007745D01*
X21135000Y7144623D01*
X21135000Y9322373D01*
X21474698Y9549352D01*
X21730000Y9931438D01*
X21985302Y9549352D01*
X22450849Y9238283D01*
X23000000Y9129050D01*
X23549151Y9238283D01*
X24014698Y9549352D01*
X24270000Y9931438D01*
X24525302Y9549352D01*
X24990849Y9238283D01*
X25540000Y9129050D01*
X25722974Y9165446D01*
X27365000Y7523421D01*
X27365000Y4090003D01*
X27364999Y4089998D01*
X27409755Y3865000D01*
X27432367Y3751323D01*
X27557029Y3564752D01*
X27624210Y3464208D01*
X30210740Y877679D01*
X742563Y737354D01*
X977539Y23765000D01*
X53015000Y23765000D01*
X53015000Y932911D01*
X53015000Y932911D01*
G37*
X53015000Y932911D02*
X52746500Y984992D01*
X50224563Y972983D01*
X51375787Y2124208D01*
X51375790Y2124210D01*
X51567633Y2411325D01*
X51635000Y2750000D01*
X51635000Y9499995D01*
X51635001Y9500000D01*
X51567633Y9838674D01*
X51567633Y9838675D01*
X51375790Y10125790D01*
X51375787Y10125792D01*
X49835790Y11665790D01*
X49781262Y11702224D01*
X49548675Y11857633D01*
X49492484Y11868810D01*
X49210000Y11925001D01*
X49209995Y11925000D01*
X49189432Y11925000D01*
X49079147Y12090054D01*
X48597378Y12411961D01*
X48029093Y12525000D01*
X47970907Y12525000D01*
X47402622Y12411961D01*
X46920853Y12090054D01*
X46598946Y11608285D01*
X46485907Y11040000D01*
X46598946Y10471715D01*
X46920853Y9989946D01*
X47261553Y9762298D01*
X47118642Y9695183D01*
X46728355Y9266924D01*
X46558524Y8856890D01*
X46679845Y8627000D01*
X47873000Y8627000D01*
X47873000Y8647000D01*
X48127000Y8647000D01*
X48127000Y8627000D01*
X49320155Y8627000D01*
X49441476Y8856890D01*
X49271645Y9266924D01*
X48881358Y9695183D01*
X48738447Y9762298D01*
X49036782Y9961639D01*
X49865000Y9133421D01*
X49865000Y3116579D01*
X48883420Y2135000D01*
X31456577Y2135000D01*
X30689017Y2902560D01*
X32540000Y2902560D01*
X32787765Y2951843D01*
X32997809Y3092191D01*
X33138157Y3302235D01*
X33187440Y3550000D01*
X33187440Y4750000D01*
X39629050Y4750000D01*
X39768731Y4047776D01*
X40166509Y3452459D01*
X40761826Y3054681D01*
X41464050Y2915000D01*
X41535950Y2915000D01*
X42238174Y3054681D01*
X42833491Y3452459D01*
X43231269Y4047776D01*
X43370950Y4750000D01*
X43306303Y5075000D01*
X46509522Y5075000D01*
X46551843Y4862235D01*
X46692191Y4652191D01*
X46902235Y4511843D01*
X47150000Y4462560D01*
X48850000Y4462560D01*
X49097765Y4511843D01*
X49307809Y4652191D01*
X49448157Y4862235D01*
X49497440Y5110000D01*
X49497440Y6810000D01*
X49448157Y7057765D01*
X49307809Y7267809D01*
X49097765Y7408157D01*
X48994292Y7428739D01*
X49271645Y7733076D01*
X49441476Y8143110D01*
X49320155Y8373000D01*
X48127000Y8373000D01*
X48127000Y8353000D01*
X47873000Y8353000D01*
X47873000Y8373000D01*
X46679845Y8373000D01*
X46558524Y8143110D01*
X46728355Y7733076D01*
X47005708Y7428739D01*
X46902235Y7408157D01*
X46692191Y7267809D01*
X46551843Y7057765D01*
X46509522Y6845000D01*
X44846579Y6845000D01*
X44875787Y6874208D01*
X44875790Y6874210D01*
X45067633Y7161325D01*
X45135000Y7500000D01*
X45135000Y16368625D01*
X45135001Y16368630D01*
X45067633Y16707304D01*
X45067633Y16707305D01*
X44875790Y16994420D01*
X44875787Y16994422D01*
X43574856Y18295354D01*
X43715824Y18436077D01*
X43934750Y18963309D01*
X43934750Y18964250D01*
X46065000Y18964250D01*
X46065000Y18323690D01*
X46161673Y18090301D01*
X46340302Y17911673D01*
X46573691Y17815000D01*
X47214250Y17815000D01*
X47373000Y17973750D01*
X47373000Y19123000D01*
X47627000Y19123000D01*
X47627000Y17973750D01*
X47785750Y17815000D01*
X48426309Y17815000D01*
X48659698Y17911673D01*
X48838327Y18090301D01*
X48935000Y18323690D01*
X48935000Y18964250D01*
X48776250Y19123000D01*
X47627000Y19123000D01*
X47373000Y19123000D01*
X46223750Y19123000D01*
X46065000Y18964250D01*
X43934750Y18964250D01*
X43935248Y19534187D01*
X43717243Y20061800D01*
X43602933Y20176310D01*
X46065000Y20176310D01*
X46065000Y19535750D01*
X46223750Y19377000D01*
X47373000Y19377000D01*
X47373000Y20526250D01*
X47627000Y20526250D01*
X47627000Y19377000D01*
X48776250Y19377000D01*
X48935000Y19535750D01*
X48935000Y20176310D01*
X48838327Y20409699D01*
X48659698Y20588327D01*
X48426309Y20685000D01*
X47785750Y20685000D01*
X47627000Y20526250D01*
X47373000Y20526250D01*
X47214250Y20685000D01*
X46573691Y20685000D01*
X46340302Y20588327D01*
X46161673Y20409699D01*
X46065000Y20176310D01*
X43602933Y20176310D01*
X43313923Y20465824D01*
X42786691Y20684750D01*
X42215813Y20685248D01*
X41688200Y20467243D01*
X41284176Y20063923D01*
X41065250Y19536691D01*
X41064752Y18965813D01*
X41282757Y18438200D01*
X41618291Y18102080D01*
X41661472Y17885001D01*
X41682367Y17779955D01*
X41826160Y17564752D01*
X41874210Y17492840D01*
X43365000Y16002051D01*
X43365000Y7866579D01*
X41992589Y6494169D01*
X41535950Y6585000D01*
X41464050Y6585000D01*
X40761826Y6445319D01*
X40166509Y6047541D01*
X39768731Y5452224D01*
X39629050Y4750000D01*
X33187440Y4750000D01*
X33187440Y5950000D01*
X33138157Y6197765D01*
X32997809Y6407809D01*
X32787765Y6548157D01*
X32540000Y6597440D01*
X32225000Y6597440D01*
X32225000Y9569832D01*
X32423491Y9702459D01*
X32821269Y10297776D01*
X32904110Y10714250D01*
X39415000Y10714250D01*
X39415000Y9673690D01*
X39511673Y9440301D01*
X39690302Y9261673D01*
X39923691Y9165000D01*
X40964250Y9165000D01*
X41123000Y9323750D01*
X41123000Y10873000D01*
X41377000Y10873000D01*
X41377000Y9323750D01*
X41535750Y9165000D01*
X42576309Y9165000D01*
X42809698Y9261673D01*
X42988327Y9440301D01*
X43085000Y9673690D01*
X43085000Y10714250D01*
X42926250Y10873000D01*
X41377000Y10873000D01*
X41123000Y10873000D01*
X39573750Y10873000D01*
X39415000Y10714250D01*
X32904110Y10714250D01*
X32960950Y11000000D01*
X32858190Y11516610D01*
X33667889Y12326310D01*
X39415000Y12326310D01*
X39415000Y11285750D01*
X39573750Y11127000D01*
X41123000Y11127000D01*
X41123000Y12676250D01*
X41377000Y12676250D01*
X41377000Y11127000D01*
X42926250Y11127000D01*
X43085000Y11285750D01*
X43085000Y12326310D01*
X42988327Y12559699D01*
X42809698Y12738327D01*
X42576309Y12835000D01*
X41535750Y12835000D01*
X41377000Y12676250D01*
X41123000Y12676250D01*
X40964250Y12835000D01*
X39923691Y12835000D01*
X39690302Y12738327D01*
X39511673Y12559699D01*
X39415000Y12326310D01*
X33667889Y12326310D01*
X37125787Y15784208D01*
X37125790Y15784210D01*
X37317633Y16071325D01*
X37385000Y16410000D01*
X37385000Y17855829D01*
X37715824Y18186077D01*
X37934750Y18713309D01*
X37935248Y19284187D01*
X37717243Y19811800D01*
X37313923Y20215824D01*
X36786691Y20434750D01*
X36215813Y20435248D01*
X35688200Y20217243D01*
X35284176Y19813923D01*
X35065250Y19286691D01*
X35064752Y18715813D01*
X35282757Y18188200D01*
X35615000Y17855377D01*
X35615000Y16776579D01*
X31582589Y12744169D01*
X31125950Y12835000D01*
X31054050Y12835000D01*
X30351826Y12695319D01*
X29756509Y12297541D01*
X29358731Y11702224D01*
X29219050Y11000000D01*
X29358731Y10297776D01*
X29756509Y9702459D01*
X30351826Y9304681D01*
X30455000Y9284158D01*
X30455000Y6597440D01*
X30140000Y6597440D01*
X29892235Y6548157D01*
X29682191Y6407809D01*
X29541843Y6197765D01*
X29492560Y5950000D01*
X29492560Y4099018D01*
X29135000Y4456578D01*
X29135000Y7889995D01*
X29135001Y7890000D01*
X29067633Y8228674D01*
X29067633Y8228675D01*
X28875790Y8515790D01*
X28875787Y8515792D01*
X26950533Y10441047D01*
X26975000Y10564050D01*
X26975000Y11435950D01*
X26865767Y11985101D01*
X26554698Y12450648D01*
X26089151Y12761717D01*
X25540000Y12870950D01*
X25357025Y12834554D01*
X24126548Y14065032D01*
X27650027Y14065032D01*
X27650032Y14065031D01*
X27947543Y14124211D01*
X27988707Y14132399D01*
X28275822Y14324242D01*
X31722796Y17771217D01*
X31742191Y17742191D01*
X31952235Y17601843D01*
X32200000Y17552560D01*
X33800000Y17552560D01*
X34047765Y17601843D01*
X34257809Y17742191D01*
X34398157Y17952235D01*
X34447440Y18200000D01*
X34447440Y19800000D01*
X34398157Y20047765D01*
X34257809Y20257809D01*
X34047765Y20398157D01*
X33800000Y20447440D01*
X32200000Y20447440D01*
X31952235Y20398157D01*
X31742191Y20257809D01*
X31601843Y20047765D01*
X31564090Y19857966D01*
X31417516Y19828810D01*
X31361325Y19817633D01*
X31074210Y19625790D01*
X31074208Y19625787D01*
X27283452Y15835032D01*
X22166547Y15835032D01*
X21635000Y16366580D01*
X21635000Y17409261D01*
X21730000Y17551438D01*
X21985302Y17169352D01*
X22450849Y16858283D01*
X23000000Y16749050D01*
X23549151Y16858283D01*
X24014698Y17169352D01*
X24105000Y17304498D01*
X24105000Y17293691D01*
X24201673Y17060302D01*
X24380301Y16881673D01*
X24613690Y16785000D01*
X25254250Y16785000D01*
X25413000Y16943750D01*
X25413000Y18493000D01*
X25667000Y18493000D01*
X25667000Y16943750D01*
X25825750Y16785000D01*
X26466310Y16785000D01*
X26699699Y16881673D01*
X26878327Y17060302D01*
X26975000Y17293691D01*
X26975000Y18334250D01*
X26816250Y18493000D01*
X25667000Y18493000D01*
X25413000Y18493000D01*
X25393000Y18493000D01*
X25393000Y18747000D01*
X25413000Y18747000D01*
X25413000Y20296250D01*
X25667000Y20296250D01*
X25667000Y18747000D01*
X26816250Y18747000D01*
X26975000Y18905750D01*
X26975000Y19946309D01*
X26878327Y20179698D01*
X26699699Y20358327D01*
X26466310Y20455000D01*
X25825750Y20455000D01*
X25667000Y20296250D01*
X25413000Y20296250D01*
X25254250Y20455000D01*
X24613690Y20455000D01*
X24380301Y20358327D01*
X24201673Y20179698D01*
X24105000Y19946309D01*
X24105000Y19935502D01*
X24014698Y20070648D01*
X23885000Y20157310D01*
X23885000Y21750000D01*
X23817633Y22088675D01*
X23625790Y22375790D01*
X23338675Y22567633D01*
X23000000Y22635000D01*
X21146575Y22635000D01*
X20405786Y23375790D01*
X20118671Y23567633D01*
X20062480Y23578810D01*
X19779996Y23635001D01*
X19779991Y23635000D01*
X3500000Y23635000D01*
X3161325Y23567633D01*
X2874210Y23375790D01*
X2874208Y23375787D01*
X1374210Y21875790D01*
X1182367Y21588675D01*
X1182367Y21588674D01*
X1114999Y21250000D01*
X1115000Y21249995D01*
X1115000Y16002045D01*
X1114999Y16002040D01*
X1148220Y15835032D01*
X1182367Y15663365D01*
X1298218Y15489981D01*
X1374210Y15376250D01*
X3396648Y13353812D01*
X3160152Y11693818D01*
X3202963Y11354735D01*
X3343311Y11144691D01*
X3377461Y11121873D01*
X3353070Y10999250D01*
X3353070Y9000270D01*
X3402353Y8752505D01*
X3542701Y8542461D01*
X3752745Y8402113D01*
X4000510Y8352830D01*
X5999490Y8352830D01*
X6247255Y8402113D01*
X6457299Y8542461D01*
X6556598Y8691072D01*
X7624209Y7623462D01*
X7624211Y7623459D01*
X7911326Y7431616D01*
X8250001Y7364249D01*
X12349486Y7364249D01*
X12349491Y7364248D01*
X12631975Y7420439D01*
X12688166Y7431616D01*
X12975281Y7623459D01*
X12975282Y7623460D01*
X16485000Y11133179D01*
X16485000Y10736579D01*
X12183260Y6434840D01*
X11715813Y6435248D01*
X11188200Y6217243D01*
X10784176Y5813923D01*
X10565250Y5286691D01*
X10564752Y4715813D01*
X10782757Y4188200D01*
X11186077Y3784176D01*
X11713309Y3565250D01*
X12284187Y3564752D01*
X12811800Y3782757D01*
X13021663Y3992255D01*
X16171861Y3992255D01*
X16245995Y3746136D01*
X16783223Y3553035D01*
X17353454Y3580222D01*
X17754005Y3746136D01*
X17828139Y3992255D01*
X17000000Y4820395D01*
X16171861Y3992255D01*
X13021663Y3992255D01*
X13215824Y4186077D01*
X13434750Y4713309D01*
X13435160Y5183580D01*
X13468357Y5216777D01*
X15553035Y5216777D01*
X15580222Y4646546D01*
X15746136Y4245995D01*
X15992255Y4171861D01*
X16820395Y5000000D01*
X17179605Y5000000D01*
X18007745Y4171861D01*
X18253864Y4245995D01*
X18446965Y4783223D01*
X18419778Y5353454D01*
X18253864Y5754005D01*
X18007745Y5828139D01*
X17179605Y5000000D01*
X16820395Y5000000D01*
X15992255Y5828139D01*
X15746136Y5754005D01*
X15553035Y5216777D01*
X13468357Y5216777D01*
X14259325Y6007745D01*
X16171861Y6007745D01*
X17000000Y5179605D01*
X17828139Y6007745D01*
X17754005Y6253864D01*
X17216777Y6446965D01*
X16646546Y6419778D01*
X16245995Y6253864D01*
X16171861Y6007745D01*
X14259325Y6007745D01*
X17470117Y9218537D01*
X17920000Y9129050D01*
X18469151Y9238283D01*
X18934698Y9549352D01*
X19190000Y9931438D01*
X19365000Y9669532D01*
X19365000Y7144171D01*
X19034176Y6813923D01*
X18815250Y6286691D01*
X18814752Y5715813D01*
X19032757Y5188200D01*
X19436077Y4784176D01*
X19963309Y4565250D01*
X20534187Y4564752D01*
X21061800Y4782757D01*
X21271663Y4992255D01*
X24421861Y4992255D01*
X24495995Y4746136D01*
X25033223Y4553035D01*
X25603454Y4580222D01*
X26004005Y4746136D01*
X26078139Y4992255D01*
X25250000Y5820395D01*
X24421861Y4992255D01*
X21271663Y4992255D01*
X21465824Y5186077D01*
X21684750Y5713309D01*
X21685189Y6216777D01*
X23803035Y6216777D01*
X23830222Y5646546D01*
X23996136Y5245995D01*
X24242255Y5171861D01*
X25070395Y6000000D01*
X25429605Y6000000D01*
X26257745Y5171861D01*
X26503864Y5245995D01*
X26696965Y5783223D01*
X26669778Y6353454D01*
X26503864Y6754005D01*
X26257745Y6828139D01*
X25429605Y6000000D01*
X25070395Y6000000D01*
X24242255Y6828139D01*
X23996136Y6754005D01*
X23803035Y6216777D01*
X21685189Y6216777D01*
X21685248Y6284187D01*
X21467243Y6811800D01*
X21271640Y7007745D01*
X24421861Y7007745D01*
X25250000Y6179605D01*
X26078139Y7007745D01*
X26004005Y7253864D01*
X25466777Y7446965D01*
X24896546Y7419778D01*
X24495995Y7253864D01*
X24421861Y7007745D01*
X21271640Y7007745D01*
X21135000Y7144623D01*
X21135000Y9322373D01*
X21474698Y9549352D01*
X21730000Y9931438D01*
X21985302Y9549352D01*
X22450849Y9238283D01*
X23000000Y9129050D01*
X23549151Y9238283D01*
X24014698Y9549352D01*
X24270000Y9931438D01*
X24525302Y9549352D01*
X24990849Y9238283D01*
X25540000Y9129050D01*
X25722974Y9165446D01*
X27365000Y7523421D01*
X27365000Y4090003D01*
X27364999Y4089998D01*
X27409755Y3865000D01*
X27432367Y3751323D01*
X27557029Y3564752D01*
X27624210Y3464208D01*
X30210740Y877679D01*
X742563Y737354D01*
X977539Y23765000D01*
X53015000Y23765000D01*
X53015000Y932911D01*
M02*
